<svg id="Layer_1" data-name="Layer 1" xmlns="http://www.w3.org/2000/svg" viewBox="0 0 630.36 560.41">
    <defs>
        <style>.cls-1{fill:none;stroke:#231f20;stroke-miterlimit:10;}.cls-2{fill:#ed1c24;}.cls-3{font-size:21px;fill:#231f20;font-family:MyriadPro-Regular,
            Myriad Pro;}</style>
    </defs>
    <line class="cls-1" x1="351.52" y1="485" x2="351.52" y2="509.54" />
    <line class="cls-1" x1="341.9" y1="485" x2="341.9" y2="509.54" />
    <line class="cls-1" x1="332.29" y1="485" x2="332.29" y2="509.54" />
    <line class="cls-1" x1="322.67" y1="460.47" x2="322.67" y2="509.54" />
    <line class="cls-1" x1="313.05" y1="485" x2="313.05" y2="509.54" />
    <line class="cls-1" x1="303.44" y1="485" x2="303.44" y2="509.54" />
    <line class="cls-1" x1="293.82" y1="485" x2="293.82" y2="509.54" />
    <line class="cls-1" x1="284.21" y1="485" x2="284.21" y2="509.54" />
    <line class="cls-1" x1="274.59" y1="460.47" x2="274.59" y2="509.54" />
    <line class="cls-1" x1="264.98" y1="485" x2="264.98" y2="509.54" />
    <line class="cls-1" x1="255.36" y1="485" x2="255.36" y2="509.54" />
    <line class="cls-1" x1="245.75" y1="485" x2="245.75" y2="509.54" />
    <line class="cls-1" x1="236.13" y1="485" x2="236.13" y2="509.54" />
    <line class="cls-1" x1="226.52" y1="460.47" x2="226.52" y2="509.54" />
    <line class="cls-1" x1="216.9" y1="485" x2="216.9" y2="509.54" />
    <line class="cls-1" x1="207.29" y1="485" x2="207.29" y2="509.54" />
    <line class="cls-1" x1="197.67" y1="485" x2="197.67" y2="509.54" />
    <line class="cls-1" x1="188.06" y1="485" x2="188.06" y2="509.54" />
    <line class="cls-1" x1="178.44" y1="460.47" x2="178.44" y2="509.54" />
    <line class="cls-1" x1="168.83" y1="485" x2="168.83" y2="509.54" />
    <line class="cls-1" x1="159.21" y1="485" x2="159.21" y2="509.54" />
    <line class="cls-1" x1="149.59" y1="485" x2="149.59" y2="509.54" />
    <line class="cls-1" x1="139.98" y1="485" x2="139.98" y2="509.54" />
    <line class="cls-1" x1="130.36" y1="460.47" x2="130.36" y2="509.54" />
    <rect class="cls-1" x="280.88" y="610.85" width="518.24" height="158.48"
        transform="translate(910.75 1120.38) rotate(180)" />
    <rect class="cls-2" x="299.62" y="781.91" width="480.76" height="38.29"
        transform="translate(910.75 1342.32) rotate(180)" />
    <rect class="cls-2" x="299.62" y="559.79" width="480.76" height="38.29"
        transform="translate(910.75 898.09) rotate(-180)" />
    <line class="cls-1" x1="611.13" y1="460.47" x2="611.13" y2="509.54" />
    <line class="cls-1" x1="601.51" y1="485" x2="601.51" y2="509.54" />
    <line class="cls-1" x1="591.9" y1="485" x2="591.9" y2="509.54" />
    <line class="cls-1" x1="582.28" y1="485" x2="582.28" y2="509.54" />
    <line class="cls-1" x1="572.67" y1="485" x2="572.67" y2="509.54" />
    <line class="cls-1" x1="563.05" y1="460.47" x2="563.05" y2="509.54" />
    <line class="cls-1" x1="553.44" y1="485" x2="553.44" y2="509.54" />
    <line class="cls-1" x1="543.82" y1="485" x2="543.82" y2="509.54" />
    <line class="cls-1" x1="534.21" y1="485" x2="534.21" y2="509.54" />
    <line class="cls-1" x1="524.59" y1="485" x2="524.59" y2="509.54" />
    <line class="cls-1" x1="514.98" y1="460.47" x2="514.98" y2="509.54" />
    <line class="cls-1" x1="505.36" y1="485" x2="505.36" y2="509.54" />
    <line class="cls-1" x1="495.75" y1="485" x2="495.75" y2="509.54" />
    <line class="cls-1" x1="486.13" y1="485" x2="486.13" y2="509.54" />
    <line class="cls-1" x1="476.51" y1="485" x2="476.51" y2="509.54" />
    <line class="cls-1" x1="466.9" y1="460.47" x2="466.9" y2="509.54" />
    <line class="cls-1" x1="457.28" y1="485" x2="457.28" y2="509.54" />
    <line class="cls-1" x1="447.67" y1="485" x2="447.67" y2="509.54" />
    <line class="cls-1" x1="438.05" y1="485" x2="438.05" y2="509.54" />
    <line class="cls-1" x1="428.44" y1="485" x2="428.44" y2="509.54" />
    <line class="cls-1" x1="418.82" y1="460.47" x2="418.82" y2="509.54" />
    <line class="cls-1" x1="409.21" y1="485" x2="409.21" y2="509.54" />
    <line class="cls-1" x1="399.59" y1="485" x2="399.59" y2="509.54" />
    <line class="cls-1" x1="389.98" y1="485" x2="389.98" y2="509.54" />
    <line class="cls-1" x1="380.36" y1="485" x2="380.36" y2="509.54" />
    <line class="cls-1" x1="370.75" y1="460.47" x2="370.75" y2="509.54" />
    <line class="cls-1" x1="361.13" y1="485" x2="361.13" y2="509.54" />
    <line class="cls-1" x1="611.13" y1="400.12" x2="611.13" y2="351.05" />
    <line class="cls-1" x1="601.51" y1="375.58" x2="601.51" y2="351.05" />
    <line class="cls-1" x1="591.9" y1="375.58" x2="591.9" y2="351.05" />
    <line class="cls-1" x1="582.28" y1="375.58" x2="582.28" y2="351.05" />
    <line class="cls-1" x1="572.67" y1="375.58" x2="572.67" y2="351.05" />
    <line class="cls-1" x1="563.05" y1="400.12" x2="563.05" y2="351.05" />
    <line class="cls-1" x1="553.44" y1="375.58" x2="553.44" y2="351.05" />
    <line class="cls-1" x1="543.82" y1="375.58" x2="543.82" y2="351.05" />
    <line class="cls-1" x1="534.21" y1="375.58" x2="534.21" y2="351.05" />
    <line class="cls-1" x1="524.59" y1="375.58" x2="524.59" y2="351.05" />
    <line class="cls-1" x1="514.98" y1="400.12" x2="514.98" y2="351.05" />
    <line class="cls-1" x1="505.36" y1="375.58" x2="505.36" y2="351.05" />
    <line class="cls-1" x1="495.75" y1="375.58" x2="495.75" y2="351.05" />
    <line class="cls-1" x1="486.13" y1="375.58" x2="486.13" y2="351.05" />
    <line class="cls-1" x1="476.51" y1="375.58" x2="476.51" y2="351.05" />
    <line class="cls-1" x1="466.9" y1="400.12" x2="466.9" y2="351.05" />
    <line class="cls-1" x1="457.28" y1="375.58" x2="457.28" y2="351.05" />
    <line class="cls-1" x1="447.67" y1="375.58" x2="447.67" y2="351.05" />
    <line class="cls-1" x1="438.05" y1="375.58" x2="438.05" y2="351.05" />
    <line class="cls-1" x1="428.44" y1="375.58" x2="428.44" y2="351.05" />
    <line class="cls-1" x1="418.82" y1="400.12" x2="418.82" y2="351.05" />
    <line class="cls-1" x1="409.21" y1="375.58" x2="409.21" y2="351.05" />
    <line class="cls-1" x1="399.59" y1="375.58" x2="399.59" y2="351.05" />
    <line class="cls-1" x1="389.98" y1="375.58" x2="389.98" y2="351.05" />
    <line class="cls-1" x1="380.36" y1="375.58" x2="380.36" y2="351.05" />
    <line class="cls-1" x1="370.75" y1="400.12" x2="370.75" y2="351.05" />
    <line class="cls-1" x1="361.13" y1="375.58" x2="361.13" y2="351.05" />
    <line class="cls-1" x1="351.52" y1="375.58" x2="351.52" y2="351.05" />
    <line class="cls-1" x1="341.9" y1="375.58" x2="341.9" y2="351.05" />
    <line class="cls-1" x1="332.29" y1="375.58" x2="332.29" y2="351.05" />
    <line class="cls-1" x1="322.67" y1="400.12" x2="322.67" y2="351.05" />
    <line class="cls-1" x1="313.05" y1="375.58" x2="313.05" y2="351.05" />
    <line class="cls-1" x1="303.44" y1="375.58" x2="303.44" y2="351.05" />
    <line class="cls-1" x1="293.82" y1="375.58" x2="293.82" y2="351.05" />
    <line class="cls-1" x1="284.21" y1="375.58" x2="284.21" y2="351.05" />
    <line class="cls-1" x1="274.59" y1="400.12" x2="274.59" y2="351.05" />
    <line class="cls-1" x1="264.98" y1="375.58" x2="264.98" y2="351.05" />
    <line class="cls-1" x1="255.36" y1="375.58" x2="255.36" y2="351.05" />
    <line class="cls-1" x1="245.75" y1="375.58" x2="245.75" y2="351.05" />
    <line class="cls-1" x1="236.13" y1="375.58" x2="236.13" y2="351.05" />
    <line class="cls-1" x1="226.52" y1="400.12" x2="226.52" y2="351.05" />
    <line class="cls-1" x1="216.9" y1="375.58" x2="216.9" y2="351.05" />
    <line class="cls-1" x1="207.29" y1="375.58" x2="207.29" y2="351.05" />
    <line class="cls-1" x1="197.67" y1="375.58" x2="197.67" y2="351.05" />
    <line class="cls-1" x1="188.06" y1="375.58" x2="188.06" y2="351.05" />
    <line class="cls-1" x1="178.44" y1="400.12" x2="178.44" y2="351.05" />
    <line class="cls-1" x1="168.83" y1="375.58" x2="168.83" y2="351.05" />
    <line class="cls-1" x1="159.21" y1="375.58" x2="159.21" y2="351.05" />
    <line class="cls-1" x1="149.59" y1="375.58" x2="149.59" y2="351.05" />
    <line class="cls-1" x1="139.98" y1="375.58" x2="139.98" y2="351.05" />
    <line class="cls-1" x1="130.36" y1="400.12" x2="130.36" y2="351.05" />
    <line class="cls-1" x1="351.52" y1="185" x2="351.52" y2="209.54" />
    <line class="cls-1" x1="341.9" y1="185" x2="341.9" y2="209.54" />
    <line class="cls-1" x1="332.29" y1="185" x2="332.29" y2="209.54" />
    <line class="cls-1" x1="322.67" y1="160.47" x2="322.67" y2="209.54" />
    <line class="cls-1" x1="313.05" y1="185" x2="313.05" y2="209.54" />
    <line class="cls-1" x1="303.44" y1="185" x2="303.44" y2="209.54" />
    <line class="cls-1" x1="293.82" y1="185" x2="293.82" y2="209.54" />
    <line class="cls-1" x1="284.21" y1="185" x2="284.21" y2="209.54" />
    <line class="cls-1" x1="274.59" y1="160.47" x2="274.59" y2="209.54" />
    <line class="cls-1" x1="264.98" y1="185" x2="264.98" y2="209.54" />
    <line class="cls-1" x1="255.36" y1="185" x2="255.36" y2="209.54" />
    <line class="cls-1" x1="245.75" y1="185" x2="245.75" y2="209.54" />
    <line class="cls-1" x1="236.13" y1="185" x2="236.13" y2="209.54" />
    <line class="cls-1" x1="226.52" y1="160.47" x2="226.52" y2="209.54" />
    <line class="cls-1" x1="216.9" y1="185" x2="216.9" y2="209.54" />
    <line class="cls-1" x1="207.29" y1="185" x2="207.29" y2="209.54" />
    <line class="cls-1" x1="197.67" y1="185" x2="197.67" y2="209.54" />
    <line class="cls-1" x1="188.06" y1="185" x2="188.06" y2="209.54" />
    <line class="cls-1" x1="178.44" y1="160.47" x2="178.44" y2="209.54" />
    <line class="cls-1" x1="168.83" y1="185" x2="168.83" y2="209.54" />
    <line class="cls-1" x1="159.21" y1="185" x2="159.21" y2="209.54" />
    <line class="cls-1" x1="149.59" y1="185" x2="149.59" y2="209.54" />
    <line class="cls-1" x1="139.98" y1="185" x2="139.98" y2="209.54" />
    <line class="cls-1" x1="130.36" y1="160.47" x2="130.36" y2="209.54" />
    <rect class="cls-1" x="280.88" y="310.85" width="518.24" height="158.48"
        transform="translate(910.75 520.38) rotate(180)" />
    <rect class="cls-2" x="299.62" y="481.91" width="480.76" height="38.29"
        transform="translate(910.75 742.32) rotate(180)" />
    <rect class="cls-2" x="299.62" y="259.79" width="480.76" height="38.29"
        transform="translate(910.75 298.09) rotate(-180)" />
    <line class="cls-1" x1="611.13" y1="160.47" x2="611.13" y2="209.54" />
    <line class="cls-1" x1="601.51" y1="185" x2="601.51" y2="209.54" />
    <line class="cls-1" x1="591.9" y1="185" x2="591.9" y2="209.54" />
    <line class="cls-1" x1="582.28" y1="185" x2="582.28" y2="209.54" />
    <line class="cls-1" x1="572.67" y1="185" x2="572.67" y2="209.54" />
    <line class="cls-1" x1="563.05" y1="160.47" x2="563.05" y2="209.54" />
    <line class="cls-1" x1="553.44" y1="185" x2="553.44" y2="209.54" />
    <line class="cls-1" x1="543.82" y1="185" x2="543.82" y2="209.54" />
    <line class="cls-1" x1="534.21" y1="185" x2="534.21" y2="209.54" />
    <line class="cls-1" x1="524.59" y1="185" x2="524.59" y2="209.54" />
    <line class="cls-1" x1="514.98" y1="160.47" x2="514.98" y2="209.54" />
    <line class="cls-1" x1="505.36" y1="185" x2="505.36" y2="209.54" />
    <line class="cls-1" x1="495.75" y1="185" x2="495.75" y2="209.54" />
    <line class="cls-1" x1="486.13" y1="185" x2="486.13" y2="209.54" />
    <line class="cls-1" x1="476.51" y1="185" x2="476.51" y2="209.54" />
    <line class="cls-1" x1="466.9" y1="160.47" x2="466.9" y2="209.54" />
    <line class="cls-1" x1="457.28" y1="185" x2="457.28" y2="209.54" />
    <line class="cls-1" x1="447.67" y1="185" x2="447.67" y2="209.54" />
    <line class="cls-1" x1="438.05" y1="185" x2="438.05" y2="209.54" />
    <line class="cls-1" x1="428.44" y1="185" x2="428.44" y2="209.54" />
    <line class="cls-1" x1="418.82" y1="160.47" x2="418.82" y2="209.54" />
    <line class="cls-1" x1="409.21" y1="185" x2="409.21" y2="209.54" />
    <line class="cls-1" x1="399.59" y1="185" x2="399.59" y2="209.54" />
    <line class="cls-1" x1="389.98" y1="185" x2="389.98" y2="209.54" />
    <line class="cls-1" x1="380.36" y1="185" x2="380.36" y2="209.54" />
    <line class="cls-1" x1="370.75" y1="160.47" x2="370.75" y2="209.54" />
    <line class="cls-1" x1="361.13" y1="185" x2="361.13" y2="209.54" />
    <line class="cls-1" x1="611.13" y1="100.12" x2="611.13" y2="51.05" />
    <line class="cls-1" x1="601.51" y1="75.58" x2="601.51" y2="51.05" />
    <line class="cls-1" x1="591.9" y1="75.58" x2="591.9" y2="51.05" />
    <line class="cls-1" x1="582.28" y1="75.58" x2="582.28" y2="51.05" />
    <line class="cls-1" x1="572.67" y1="75.58" x2="572.67" y2="51.05" />
    <line class="cls-1" x1="563.05" y1="100.12" x2="563.05" y2="51.05" />
    <line class="cls-1" x1="553.44" y1="75.58" x2="553.44" y2="51.05" />
    <line class="cls-1" x1="543.82" y1="75.58" x2="543.82" y2="51.05" />
    <line class="cls-1" x1="534.21" y1="75.58" x2="534.21" y2="51.05" />
    <line class="cls-1" x1="524.59" y1="75.58" x2="524.59" y2="51.05" />
    <line class="cls-1" x1="514.98" y1="100.12" x2="514.98" y2="51.05" />
    <line class="cls-1" x1="505.36" y1="75.58" x2="505.36" y2="51.05" />
    <line class="cls-1" x1="495.75" y1="75.58" x2="495.75" y2="51.05" />
    <line class="cls-1" x1="486.13" y1="75.58" x2="486.13" y2="51.05" />
    <line class="cls-1" x1="476.51" y1="75.58" x2="476.51" y2="51.05" />
    <line class="cls-1" x1="466.9" y1="100.12" x2="466.9" y2="51.05" />
    <line class="cls-1" x1="457.28" y1="75.58" x2="457.28" y2="51.05" />
    <line class="cls-1" x1="447.67" y1="75.58" x2="447.67" y2="51.05" />
    <line class="cls-1" x1="438.05" y1="75.58" x2="438.05" y2="51.05" />
    <line class="cls-1" x1="428.44" y1="75.58" x2="428.44" y2="51.05" />
    <line class="cls-1" x1="418.82" y1="100.12" x2="418.82" y2="51.05" />
    <line class="cls-1" x1="409.21" y1="75.58" x2="409.21" y2="51.05" />
    <line class="cls-1" x1="399.59" y1="75.58" x2="399.59" y2="51.05" />
    <line class="cls-1" x1="389.98" y1="75.58" x2="389.98" y2="51.05" />
    <line class="cls-1" x1="380.36" y1="75.58" x2="380.36" y2="51.05" />
    <line class="cls-1" x1="370.75" y1="100.12" x2="370.75" y2="51.05" />
    <line class="cls-1" x1="361.13" y1="75.58" x2="361.13" y2="51.05" />
    <line class="cls-1" x1="351.52" y1="75.58" x2="351.52" y2="51.05" />
    <line class="cls-1" x1="341.9" y1="75.58" x2="341.9" y2="51.05" />
    <line class="cls-1" x1="332.29" y1="75.58" x2="332.29" y2="51.05" />
    <line class="cls-1" x1="322.67" y1="100.12" x2="322.67" y2="51.05" />
    <line class="cls-1" x1="313.05" y1="75.58" x2="313.05" y2="51.05" />
    <line class="cls-1" x1="303.44" y1="75.58" x2="303.44" y2="51.05" />
    <line class="cls-1" x1="293.82" y1="75.58" x2="293.82" y2="51.05" />
    <line class="cls-1" x1="284.21" y1="75.58" x2="284.21" y2="51.05" />
    <line class="cls-1" x1="274.59" y1="100.12" x2="274.59" y2="51.05" />
    <line class="cls-1" x1="264.98" y1="75.58" x2="264.98" y2="51.05" />
    <line class="cls-1" x1="255.36" y1="75.58" x2="255.36" y2="51.05" />
    <line class="cls-1" x1="245.75" y1="75.58" x2="245.75" y2="51.05" />
    <line class="cls-1" x1="236.13" y1="75.58" x2="236.13" y2="51.05" />
    <line class="cls-1" x1="226.52" y1="100.12" x2="226.52" y2="51.05" />
    <line class="cls-1" x1="216.9" y1="75.58" x2="216.9" y2="51.05" />
    <line class="cls-1" x1="207.29" y1="75.58" x2="207.29" y2="51.05" />
    <line class="cls-1" x1="197.67" y1="75.58" x2="197.67" y2="51.05" />
    <line class="cls-1" x1="188.06" y1="75.58" x2="188.06" y2="51.05" />
    <line class="cls-1" x1="178.44" y1="100.12" x2="178.44" y2="51.05" />
    <line class="cls-1" x1="168.83" y1="75.58" x2="168.83" y2="51.05" />
    <line class="cls-1" x1="159.21" y1="75.58" x2="159.21" y2="51.05" />
    <line class="cls-1" x1="149.59" y1="75.58" x2="149.59" y2="51.05" />
    <line class="cls-1" x1="139.98" y1="75.58" x2="139.98" y2="51.05" />
    <line class="cls-1" x1="130.36" y1="100.12" x2="130.36" y2="51.05" />
    <text class="cls-3" transform="translate(0 140.29)">(1) _____</text>
    <text class="cls-3" transform="translate(1.34 440.29)">(2) _____</text>
    <text class="cls-3" transform="translate(130.36 436.29)">0</text>
    <text class="cls-3" transform="translate(226.52 436.29)">10</text>
    <text class="cls-3" transform="translate(322.67 436.52)">20</text>
    <text class="cls-3" transform="translate(418.82 436.29)">30</text>
    <text class="cls-3" transform="translate(514.98 436.76)">40</text>
    <text class="cls-3" transform="translate(598.07 436.52)">50</text>
    <text class="cls-3" transform="translate(130.36 137.69)">0</text>
    <text class="cls-3" transform="translate(226.52 137.69)">10</text>
    <text class="cls-3" transform="translate(322.67 137.92)">20</text>
    <text class="cls-3" transform="translate(418.82 137.69)">30</text>
    <text class="cls-3" transform="translate(514.98 138.15)">40</text>
    <text class="cls-3" transform="translate(598.07 137.92)">50</text>
</svg>