<svg xmlns="http://www.w3.org/2000/svg" viewBox="0 0 99.15 647.51">
    <defs>
        <style>
            .cls-1,.cls-3{fill:none;}.cls-1,.cls-3,.cls-4{stroke:#231f20;stroke-miterlimit:10;}.cls-1{stroke-width:3px;}.cls-2{fill:#ed1c24;}.cls-3{stroke-width:0.5px;}.cls-4{fill:#231f20;}
        </style>
    </defs>
    <g id="circle">
        <path class="cls-1" d="M381,276.28a21,21,0,1,0-42,0v537h42Z"
            transform="translate(-310.42 -253.64)" />
        <rect class="cls-2" x="32.2" y="22.17" width="34.74" height="535.99" />
        <line class="cls-3" y1="22.17" x2="28.59" y2="22.17" />
        <line class="cls-3" y1="33.1" x2="28.59" y2="33.1" />
        <line class="cls-3" y1="44.04" x2="28.59" y2="44.04" />
        <line class="cls-3" y1="54.98" x2="28.59" y2="54.98" />
        <line class="cls-3" y1="65.92" x2="28.59" y2="65.92" />
        <line class="cls-3" y1="76.86" x2="28.59" y2="76.86" />
        <line class="cls-3" y1="87.8" x2="28.59" y2="87.8" />
        <line class="cls-3" y1="98.74" x2="28.59" y2="98.74" />
        <line class="cls-3" y1="109.67" x2="28.59" y2="109.67" />
        <line class="cls-3" y1="120.61" x2="28.59" y2="120.61" />
        <line class="cls-3" y1="131.55" x2="28.59" y2="131.55" />
        <line class="cls-3" y1="142.49" x2="28.59" y2="142.49" />
        <line class="cls-3" y1="153.43" x2="28.59" y2="153.43" />
        <line class="cls-3" y1="164.37" x2="28.59" y2="164.37" />
        <line class="cls-3" y1="175.31" x2="28.59" y2="175.31" />
        <line class="cls-3" y1="186.24" x2="28.59" y2="186.24" />
        <line class="cls-3" y1="197.18" x2="28.59" y2="197.18" />
        <line class="cls-3" y1="208.12" x2="28.59" y2="208.12" />
        <line class="cls-3" y1="219.06" x2="28.59" y2="219.06" />
        <line class="cls-3" y1="230" x2="28.59" y2="230" />
        <line class="cls-3" y1="240.94" x2="28.59" y2="240.94" />
        <line class="cls-3" y1="251.88" x2="28.59" y2="251.88" />
        <line class="cls-3" y1="262.81" x2="28.59" y2="262.81" />
        <line class="cls-3" y1="273.75" x2="28.59" y2="273.75" />
        <line class="cls-3" y1="284.69" x2="28.59" y2="284.69" />
        <line class="cls-3" y1="295.63" x2="28.59" y2="295.63" />
        <line class="cls-3" y1="306.57" x2="28.59" y2="306.57" />
        <line class="cls-3" y1="317.51" x2="28.59" y2="317.51" />
        <line class="cls-3" y1="328.45" x2="28.59" y2="328.45" />
        <line class="cls-3" y1="339.38" x2="28.59" y2="339.38" />
        <line class="cls-3" y1="350.32" x2="28.59" y2="350.32" />
        <line class="cls-3" y1="361.26" x2="28.59" y2="361.26" />
        <line class="cls-3" y1="372.2" x2="28.59" y2="372.2" />
        <line class="cls-3" y1="383.14" x2="28.59" y2="383.14" />
        <line class="cls-3" y1="394.08" x2="28.59" y2="394.08" />
        <line class="cls-3" y1="405.02" x2="28.59" y2="405.02" />
        <line class="cls-3" y1="415.95" x2="28.59" y2="415.95" />
        <line class="cls-3" y1="426.89" x2="28.59" y2="426.89" />
        <line class="cls-3" y1="437.83" x2="28.59" y2="437.83" />
        <line class="cls-3" y1="448.77" x2="28.59" y2="448.77" />
        <line class="cls-3" y1="459.71" x2="28.59" y2="459.71" />
        <line class="cls-3" y1="470.65" x2="28.59" y2="470.65" />
        <line class="cls-3" y1="481.59" x2="28.59" y2="481.59" />
        <line class="cls-3" y1="492.52" x2="28.59" y2="492.52" />
        <line class="cls-3" y1="503.46" x2="28.59" y2="503.46" />
        <line class="cls-3" y1="514.4" x2="28.59" y2="514.4" />
        <line class="cls-3" y1="525.34" x2="28.59" y2="525.34" />
        <line class="cls-3" y1="536.28" x2="28.59" y2="536.28" />
        <line class="cls-3" y1="547.22" x2="28.59" y2="547.22" />
        <line class="cls-3" y1="558.16" x2="28.59" y2="558.16" />
        <line class="cls-3" x1="14.29" y1="27.64" x2="28.59" y2="27.64" />
        <line class="cls-3" x1="14.29" y1="38.57" x2="28.59" y2="38.57" />
        <line class="cls-3" x1="14.29" y1="49.51" x2="28.59" y2="49.51" />
        <line class="cls-3" x1="14.29" y1="60.45" x2="28.59" y2="60.45" />
        <line class="cls-3" x1="14.29" y1="71.39" x2="28.59" y2="71.39" />
        <line class="cls-3" x1="14.29" y1="82.33" x2="28.59" y2="82.33" />
        <line class="cls-3" x1="14.29" y1="93.27" x2="28.59" y2="93.27" />
        <line class="cls-3" x1="14.29" y1="104.21" x2="28.59" y2="104.21" />
        <line class="cls-3" x1="14.29" y1="115.14" x2="28.59" y2="115.14" />
        <line class="cls-3" x1="14.29" y1="126.08" x2="28.59" y2="126.08" />
        <line class="cls-3" x1="14.29" y1="137.02" x2="28.59" y2="137.02" />
        <line class="cls-3" x1="14.29" y1="147.96" x2="28.59" y2="147.96" />
        <line class="cls-3" x1="14.29" y1="158.9" x2="28.59" y2="158.9" />
        <line class="cls-3" x1="14.29" y1="169.84" x2="28.59" y2="169.84" />
        <line class="cls-3" x1="14.29" y1="180.78" x2="28.59" y2="180.78" />
        <line class="cls-3" x1="14.29" y1="191.71" x2="28.59" y2="191.71" />
        <line class="cls-3" x1="14.29" y1="202.65" x2="28.59" y2="202.65" />
        <line class="cls-3" x1="14.29" y1="213.59" x2="28.59" y2="213.59" />
        <line class="cls-3" x1="14.29" y1="224.53" x2="28.59" y2="224.53" />
        <line class="cls-3" x1="14.29" y1="235.47" x2="28.59" y2="235.47" />
        <line class="cls-3" x1="14.29" y1="246.41" x2="28.59" y2="246.41" />
        <line class="cls-3" x1="14.29" y1="257.35" x2="28.59" y2="257.35" />
        <line class="cls-3" x1="14.29" y1="268.28" x2="28.59" y2="268.28" />
        <line class="cls-3" x1="14.29" y1="279.22" x2="28.59" y2="279.22" />
        <line class="cls-3" x1="14.29" y1="290.16" x2="28.59" y2="290.16" />
        <line class="cls-3" x1="14.29" y1="301.1" x2="28.59" y2="301.1" />
        <line class="cls-3" x1="14.29" y1="312.04" x2="28.59" y2="312.04" />
        <line class="cls-3" x1="14.29" y1="322.98" x2="28.59" y2="322.98" />
        <line class="cls-3" x1="14.29" y1="333.92" x2="28.59" y2="333.92" />
        <line class="cls-3" x1="14.29" y1="344.85" x2="28.59" y2="344.85" />
        <line class="cls-3" x1="14.29" y1="355.79" x2="28.59" y2="355.79" />
        <line class="cls-3" x1="14.29" y1="366.73" x2="28.59" y2="366.73" />
        <line class="cls-3" x1="14.29" y1="377.67" x2="28.59" y2="377.67" />
        <line class="cls-3" x1="14.29" y1="388.61" x2="28.59" y2="388.61" />
        <line class="cls-3" x1="14.29" y1="399.55" x2="28.59" y2="399.55" />
        <line class="cls-3" x1="14.29" y1="410.49" x2="28.59" y2="410.49" />
        <line class="cls-3" x1="14.29" y1="421.42" x2="28.59" y2="421.42" />
        <line class="cls-3" x1="14.29" y1="432.36" x2="28.59" y2="432.36" />
        <line class="cls-3" x1="14.29" y1="443.3" x2="28.59" y2="443.3" />
        <line class="cls-3" x1="14.29" y1="454.24" x2="28.59" y2="454.24" />
        <line class="cls-3" x1="14.29" y1="465.18" x2="28.59" y2="465.18" />
        <line class="cls-3" x1="14.29" y1="476.12" x2="28.59" y2="476.12" />
        <line class="cls-3" x1="14.29" y1="487.05" x2="28.59" y2="487.05" />
        <line class="cls-3" x1="14.29" y1="497.99" x2="28.59" y2="497.99" />
        <line class="cls-3" x1="14.29" y1="508.93" x2="28.59" y2="508.93" />
        <line class="cls-3" x1="14.29" y1="519.87" x2="28.59" y2="519.87" />
        <line class="cls-3" x1="14.29" y1="530.81" x2="28.59" y2="530.81" />
        <line class="cls-3" x1="14.29" y1="541.75" x2="28.59" y2="541.75" />
        <line class="cls-3" x1="14.29" y1="552.69" x2="28.59" y2="552.69" />
        <line class="cls-3" x1="99.15" y1="22.17" x2="70.56" y2="22.17" />
        <line class="cls-3" x1="99.15" y1="33.1" x2="70.56" y2="33.1" />
        <line class="cls-3" x1="99.15" y1="44.04" x2="70.56" y2="44.04" />
        <line class="cls-3" x1="99.15" y1="54.98" x2="70.56" y2="54.98" />
        <line class="cls-3" x1="99.15" y1="65.92" x2="70.56" y2="65.92" />
        <line class="cls-3" x1="99.15" y1="76.86" x2="70.56" y2="76.86" />
        <line class="cls-3" x1="99.15" y1="87.8" x2="70.56" y2="87.8" />
        <line class="cls-3" x1="99.15" y1="98.74" x2="70.56" y2="98.74" />
        <line class="cls-3" x1="99.15" y1="109.67" x2="70.56" y2="109.67" />
        <line class="cls-3" x1="99.15" y1="120.61" x2="70.56" y2="120.61" />
        <line class="cls-3" x1="99.15" y1="131.55" x2="70.56" y2="131.55" />
        <line class="cls-3" x1="99.15" y1="142.49" x2="70.56" y2="142.49" />
        <line class="cls-3" x1="99.15" y1="153.43" x2="70.56" y2="153.43" />
        <line class="cls-3" x1="99.15" y1="164.37" x2="70.56" y2="164.37" />
        <line class="cls-3" x1="99.15" y1="175.31" x2="70.56" y2="175.31" />
        <line class="cls-3" x1="99.15" y1="186.24" x2="70.56" y2="186.24" />
        <line class="cls-3" x1="99.15" y1="197.18" x2="70.56" y2="197.18" />
        <line class="cls-3" x1="99.15" y1="208.12" x2="70.56" y2="208.12" />
        <line class="cls-3" x1="99.15" y1="219.06" x2="70.56" y2="219.06" />
        <line class="cls-3" x1="99.15" y1="230" x2="70.56" y2="230" />
        <line class="cls-3" x1="99.15" y1="240.94" x2="70.56" y2="240.94" />
        <line class="cls-3" x1="99.15" y1="251.88" x2="70.56" y2="251.88" />
        <line class="cls-3" x1="99.15" y1="262.81" x2="70.56" y2="262.81" />
        <line class="cls-3" x1="99.15" y1="273.75" x2="70.56" y2="273.75" />
        <line class="cls-3" x1="99.15" y1="284.69" x2="70.56" y2="284.69" />
        <line class="cls-3" x1="99.15" y1="295.63" x2="70.56" y2="295.63" />
        <line class="cls-3" x1="99.15" y1="306.57" x2="70.56" y2="306.57" />
        <line class="cls-3" x1="99.15" y1="317.51" x2="70.56" y2="317.51" />
        <line class="cls-3" x1="99.15" y1="328.45" x2="70.56" y2="328.45" />
        <line class="cls-3" x1="99.15" y1="339.38" x2="70.56" y2="339.38" />
        <line class="cls-3" x1="99.15" y1="350.32" x2="70.56" y2="350.32" />
        <line class="cls-3" x1="99.15" y1="361.26" x2="70.56" y2="361.26" />
        <line class="cls-3" x1="99.15" y1="372.2" x2="70.56" y2="372.2" />
        <line class="cls-3" x1="99.15" y1="383.14" x2="70.56" y2="383.14" />
        <line class="cls-3" x1="99.15" y1="394.08" x2="70.56" y2="394.08" />
        <line class="cls-3" x1="99.15" y1="405.02" x2="70.56" y2="405.02" />
        <line class="cls-3" x1="99.15" y1="415.95" x2="70.56" y2="415.95" />
        <line class="cls-3" x1="99.15" y1="426.89" x2="70.56" y2="426.89" />
        <line class="cls-3" x1="99.15" y1="437.83" x2="70.56" y2="437.83" />
        <line class="cls-3" x1="99.15" y1="448.77" x2="70.56" y2="448.77" />
        <line class="cls-3" x1="99.15" y1="459.71" x2="70.56" y2="459.71" />
        <line class="cls-3" x1="99.15" y1="470.65" x2="70.56" y2="470.65" />
        <line class="cls-3" x1="99.15" y1="481.59" x2="70.56" y2="481.59" />
        <line class="cls-3" x1="99.15" y1="492.52" x2="70.56" y2="492.52" />
        <line class="cls-3" x1="99.15" y1="503.46" x2="70.56" y2="503.46" />
        <line class="cls-3" x1="99.15" y1="514.4" x2="70.56" y2="514.4" />
        <line class="cls-3" x1="99.15" y1="525.34" x2="70.56" y2="525.34" />
        <line class="cls-3" x1="99.15" y1="536.28" x2="70.56" y2="536.28" />
        <line class="cls-3" x1="99.15" y1="547.22" x2="70.56" y2="547.22" />
        <line class="cls-3" x1="99.15" y1="558.16" x2="70.56" y2="558.16" />
        <line class="cls-3" x1="84.86" y1="27.64" x2="70.56" y2="27.64" />
        <line class="cls-3" x1="84.86" y1="38.57" x2="70.56" y2="38.57" />
        <line class="cls-3" x1="84.86" y1="49.51" x2="70.56" y2="49.51" />
        <line class="cls-3" x1="84.86" y1="60.45" x2="70.56" y2="60.45" />
        <line class="cls-3" x1="84.86" y1="71.39" x2="70.56" y2="71.39" />
        <line class="cls-3" x1="84.86" y1="82.33" x2="70.56" y2="82.33" />
        <line class="cls-3" x1="84.86" y1="93.27" x2="70.56" y2="93.27" />
        <line class="cls-3" x1="84.86" y1="104.21" x2="70.56" y2="104.21" />
        <line class="cls-3" x1="84.86" y1="115.14" x2="70.56" y2="115.14" />
        <line class="cls-3" x1="84.86" y1="126.08" x2="70.56" y2="126.08" />
        <line class="cls-3" x1="84.86" y1="137.02" x2="70.56" y2="137.02" />
        <line class="cls-3" x1="84.86" y1="147.96" x2="70.56" y2="147.96" />
        <line class="cls-3" x1="84.86" y1="158.9" x2="70.56" y2="158.9" />
        <line class="cls-3" x1="84.86" y1="169.84" x2="70.56" y2="169.84" />
        <line class="cls-3" x1="84.86" y1="180.78" x2="70.56" y2="180.78" />
        <line class="cls-3" x1="84.86" y1="191.71" x2="70.56" y2="191.71" />
        <line class="cls-3" x1="84.86" y1="202.65" x2="70.56" y2="202.65" />
        <line class="cls-3" x1="84.86" y1="213.59" x2="70.56" y2="213.59" />
        <line class="cls-3" x1="84.86" y1="224.53" x2="70.56" y2="224.53" />
        <line class="cls-3" x1="84.86" y1="235.47" x2="70.56" y2="235.47" />
        <line class="cls-3" x1="84.86" y1="246.41" x2="70.56" y2="246.41" />
        <line class="cls-3" x1="84.86" y1="257.35" x2="70.56" y2="257.35" />
        <line class="cls-3" x1="84.86" y1="268.28" x2="70.56" y2="268.28" />
        <line class="cls-3" x1="84.86" y1="279.22" x2="70.56" y2="279.22" />
        <line class="cls-3" x1="84.86" y1="290.16" x2="70.56" y2="290.16" />
        <line class="cls-3" x1="84.86" y1="301.1" x2="70.56" y2="301.1" />
        <line class="cls-3" x1="84.86" y1="312.04" x2="70.56" y2="312.04" />
        <line class="cls-3" x1="84.86" y1="322.98" x2="70.56" y2="322.98" />
        <line class="cls-3" x1="84.86" y1="333.92" x2="70.56" y2="333.92" />
        <line class="cls-3" x1="84.86" y1="344.85" x2="70.56" y2="344.85" />
        <line class="cls-3" x1="84.86" y1="355.79" x2="70.56" y2="355.79" />
        <line class="cls-3" x1="84.86" y1="366.73" x2="70.56" y2="366.73" />
        <line class="cls-3" x1="84.86" y1="377.67" x2="70.56" y2="377.67" />
        <line class="cls-3" x1="84.86" y1="388.61" x2="70.56" y2="388.61" />
        <line class="cls-3" x1="84.86" y1="399.55" x2="70.56" y2="399.55" />
        <line class="cls-3" x1="84.86" y1="410.49" x2="70.56" y2="410.49" />
        <line class="cls-3" x1="84.86" y1="421.42" x2="70.56" y2="421.42" />
        <line class="cls-3" x1="84.86" y1="432.36" x2="70.56" y2="432.36" />
        <line class="cls-3" x1="84.86" y1="443.3" x2="70.56" y2="443.3" />
        <line class="cls-3" x1="84.86" y1="454.24" x2="70.56" y2="454.24" />
        <line class="cls-3" x1="84.86" y1="465.18" x2="70.56" y2="465.18" />
        <line class="cls-3" x1="84.86" y1="476.12" x2="70.56" y2="476.12" />
        <line class="cls-3" x1="84.86" y1="487.05" x2="70.56" y2="487.05" />
        <line class="cls-3" x1="84.86" y1="497.99" x2="70.56" y2="497.99" />
        <line class="cls-3" x1="84.86" y1="508.93" x2="70.56" y2="508.93" />
        <line class="cls-3" x1="84.86" y1="519.87" x2="70.56" y2="519.87" />
        <line class="cls-3" x1="84.86" y1="530.81" x2="70.56" y2="530.81" />
        <line class="cls-3" x1="84.86" y1="541.75" x2="70.56" y2="541.75" />
        <line class="cls-3" x1="84.86" y1="552.69" x2="70.56" y2="552.69" />
        <circle class="cls-4" cx="49.58" cy="600.77" r="46.24" />
    </g>
</svg>